# xmcd
#
# Track frame offsets:
#	150
#	21324
#	43116
#	59091
#	82124
#	100060
#	118970
#	138432
#	159886
#	177156
#
# Disc length: 2931 seconds
#
# Revision: 0
# Processed by: cddbd v1.5.2PL0 Copyright (c) Steve Scherf et al.
# Submitted via: dBpowerAMP V4.0
#
DISCID=890b710a
DTITLE=Terry Morrison - Riches and Grace
DYEAR=2007
DGENRE=Roots
TTITLE0=Liverpool Lullaby
TTITLE1=Fine Balance
TTITLE2=Casual Encounter
TTITLE3=Orphan Lake
TTITLE4=Bei Mir Bist Du Schon
TTITLE5=Take Me Down
TTITLE6=Never No More
TTITLE7=Waiting For The Harvest
TTITLE8=Winter Storm
TTITLE9=Prelude To A Kiss
EXTD=
EXTT0=
EXTT1=
EXTT2=
EXTT3=
EXTT4=
EXTT5=
EXTT6=
EXTT7=
EXTT8=
EXTT9=
PLAYORDER=
